<svg xmlns="http://www.w3.org/2000/svg" viewBox="0 0 188.18 40" data-name="Capa 1"><path fill="#a10062" d="M37.395 19.883c0-.19-.1-.37-.16-.55a5.77 5.77 0 00-1.12-2.05 5.47 5.47 0 00-1.93-1.42 7.15 7.15 0 00-2.9-.53 8 8 0 00-2.55.42 6.3 6.3 0 00-2.23 1.34 6.68 6.68 0 00-1.58 2.28 8.41 8.41 0 00-.59 3.29 9.66 9.66 0 00.67 3.87 6.5 6.5 0 001.74 2.44 6.42 6.42 0 002.44 1.27 11 11 0 002.8.36 9.31 9.31 0 002.74-.35 5.61 5.61 0 001.8-.83 9.64 9.64 0 00.81-.73l-1.58-2.45-.21.17a4.42 4.42 0 01-.8.52 5.79 5.79 0 01-1 .42 4.92 4.92 0 01-1.34.16 3.53 3.53 0 01-2.92-1.11 5 5 0 01-1-2.77h9.06v-1.88a8.78 8.78 0 00-.2-1.87m-9 1.39a3.49 3.49 0 01.84-2.37 2.5 2.5 0 012-.84 2.16 2.16 0 012 .88 4.18 4.18 0 01.57 2.33zm-14.25-5.52a7.48 7.48 0 01-.67 3.34 5.83 5.83 0 01-1.81 2.19 7.51 7.51 0 01-2.64 1.26 13.57 13.57 0 01-3.18.41h-1.61v7.08h-4V9.903a56.86 56.86 0 015.36-.3c3 0 5.12.52 6.49 1.56a5.41 5.41 0 012.06 4.59m-4.24.21a3 3 0 00-1.1-2.63 4.79 4.79 0 00-2.84-.79 16.38 16.38 0 00-1.73.06v7.29h1.13a5.56 5.56 0 003.38-.87 3.64 3.64 0 001.16-3.06m89.48.43a5 5 0 00-4-.84v14a5.05 5.05 0 004 .83zm-47.15-.52a4.63 4.63 0 00-4.22.13l-2.92 10-3-10a4.69 4.69 0 00-4.35-.07l.06.16 5 14h4.52l5-14.11-.09-.11m40.73 10.2a4.8 4.8 0 01-.45.44 3.85 3.85 0 01-.73.48 4.56 4.56 0 01-1 .38 4.5 4.5 0 01-1.21.15 3.75 3.75 0 01-1.73-.36 3.21 3.21 0 01-1.13-1 4 4 0 01-.61-1.56 8.69 8.69 0 01-.19-1.82 5.43 5.43 0 01.85-3.13 3.22 3.22 0 012.85-1.23 4.18 4.18 0 012.09.52 5.62 5.62 0 011.43 1 4.89 4.89 0 00.3-3.34 4 4 0 00-.37-.26 5.91 5.91 0 00-1.75-.74 9.38 9.38 0 00-2.31-.27 8.88 8.88 0 00-2.25.32 6.66 6.66 0 00-2.38 1.16 6.75 6.75 0 00-1.88 2.3 8.11 8.11 0 00-.76 3.76 9 9 0 00.73 3.93 6.46 6.46 0 001.82 2.35 6.11 6.11 0 002.36 1.15 10.37 10.37 0 002.36.3 8.52 8.52 0 002.7-.36 6.12 6.12 0 001.6-.77 5 5 0 00-.34-3.4m-69.07-9.54a5.32 5.32 0 00-5-1 7.44 7.44 0 00-1.33.43 4.59 4.59 0 00-2 1.71 4.94 4.94 0 00-.67 2.42v10h4v-9.49a1.67 1.67 0 01.62-1.31 2.33 2.33 0 011.57-.55 3 3 0 011.21.23 4.74 4.74 0 011 .65c0-.06.09-.18.15-.32a5.33 5.33 0 00.38-2.76m105.75 1.69a3.4 3.4 0 00-.85-1.36 5.53 5.53 0 00-.46-.41 6 6 0 00-2-.92 6.7 6.7 0 00-1.67-.21h-1.57c-5.46.44-6.39 3.46-6.39 3.46v11.24h4.37v-10.32a3.06 3.06 0 012-1 4.24 4.24 0 011.48.05 1.57 1.57 0 01.71.34 1.28 1.28 0 01.3.43 2.78 2.78 0 01.22 1v9.52h4v-9.37a9.46 9.46 0 00-.14-2.45zm-64.24 1.65l-.1-.55a5.79 5.79 0 00-1.13-2.05 5.38 5.38 0 00-2-1.42 7.14 7.14 0 00-2.87-.53 7.88 7.88 0 00-2.55.42 6.22 6.22 0 00-2.25 1.34 6.42 6.42 0 00-1.58 2.28 8.23 8.23 0 00-.62 3.29 9.85 9.85 0 00.66 3.87 6.63 6.63 0 001.75 2.44 6.31 6.31 0 002.45 1.27 11 11 0 002.8.36 9.31 9.31 0 002.74-.35 5.78 5.78 0 001.81-.83c.27-.2.81-.73.81-.73l-1.59-2.45-.21.17a4.09 4.09 0 01-.8.52 5.24 5.24 0 01-1 .42 4.87 4.87 0 01-1.34.16 3.53 3.53 0 01-2.89-1.11 5 5 0 01-1-2.77h9.01a3.27 3.27 0 000-.41v-1.47a8.79 8.79 0 00-.19-1.87m-9 1.39a3.49 3.49 0 01.74-2.37 2.52 2.52 0 012-.84 2.16 2.16 0 012 .88 4.18 4.18 0 01.57 2.33zm58.52-1.27a6.6 6.6 0 00-.84-1.89 9.34 9.34 0 00-.63-.78c-.41 1.6-1.43 3.1-2.51 3.39-.12 0 0 .18 0 .34a6.38 6.38 0 01.21 1.84 11.52 11.52 0 01-.12 1.67 4.46 4.46 0 01-.46 1.46 2.65 2.65 0 01-.92 1 2.62 2.62 0 01-1.5.4 2.58 2.58 0 01-1.48-.4 2.76 2.76 0 01-.93-1 5 5 0 01-.47-1.46 10.07 10.07 0 01-.13-1.64 8.51 8.51 0 01.15-1.6 4.65 4.65 0 01.5-1.4 3 3 0 01.94-1 .73.73 0 00.19-.18 8.25 8.25 0 001.12-3.34h-.15a7.59 7.59 0 00-2.81.59 6.21 6.21 0 00-2.21 1.6 6.91 6.91 0 00-1.35 2.42 9.28 9.28 0 00-.45 2.91 10.51 10.51 0 00.39 2.89 6.78 6.78 0 001.24 2.42 6 6 0 002.19 1.66 7.87 7.87 0 003.28.62 7.75 7.75 0 003.29-.63 6.28 6.28 0 002.23-1.7 6.51 6.51 0 001.23-2.45 10.63 10.63 0 00.38-2.9 10.41 10.41 0 00-.38-2.87"/><path fill="#a10062" d="M107.635 19.283c0 .06.07.13.11.16a1.85 1.85 0 00.7.31 3.47 3.47 0 00.84.06 2.72 2.72 0 002-.87 5.57 5.57 0 00.67-1.18c.48-1.31.94-3.57 1.7-4.62l.21-.26a.14.14 0 000-.06.18.18 0 00-.1-.24 2.91 2.91 0 00-3.75 1c-.66 1-1.15 4.07-1.76 5.15a1.56 1.56 0 01-.41.41s-.18.08-.18.18m43.34 10.69l-1.72-4.95h-7l-1.66 4.95h-4.11l7-19.92a5.59 5.59 0 011-.29 6.87 6.87 0 011.4-.13 4 4 0 01.74.06 2.65 2.65 0 01.8.25 2.73 2.73 0 01.74.56 2.57 2.57 0 01.56 1l6.49 18.47zm-5.16-16.57l-2.75 8.6h5.41zm24.85 2.16a7.21 7.21 0 01-.32 2.22 5.78 5.78 0 01-.86 1.7 5.08 5.08 0 01-1.24 1.21 6.47 6.47 0 01-1.41.76l5 8.33a7.06 7.06 0 01-1.21.37 5.23 5.23 0 01-1.21.14 3.42 3.42 0 01-1.87-.48 4.54 4.54 0 01-1.39-1.59l-3.44-5.86h-1.66v7.61h-4.16v-20.1c.9-.1 1.83-.18 2.77-.23.94-.05 1.8-.08 2.57-.08 2.92 0 5.05.5 6.41 1.48a5.2 5.2 0 012 4.5m-4.35.39a3.21 3.21 0 00-1-2.67 4.37 4.37 0 00-2.72-.77h-.94l-.66.06v7h1.42a4.24 4.24 0 002.84-.9 3.37 3.37 0 001-2.73m11.75-2.79h-6.31c0-.25-.06-.45-.07-.61-.01-.16 0-.35 0-.57a2.28 2.28 0 01.55-1.53 2.5 2.5 0 012-.67h14.18a7.84 7.84 0 01.1 1.29 2.49 2.49 0 01-.13.77 1.53 1.53 0 01-.42.67 2.51 2.51 0 01-.77.47 3.25 3.25 0 01-1.16.18h-3.8v16.84h-4.17zm-98.08 5.06a3.19 3.19 0 00-.85-1.36 4.26 4.26 0 00-.46-.41 5.89 5.89 0 00-2-.92 6.64 6.64 0 00-1.67-.21h-1.55c-5.46.44-6.39 3.46-6.39 3.46v11.24h4.38v-10.32a3.1 3.1 0 012-1 4.3 4.3 0 011.49.05 1.53 1.53 0 01.7.34 1.16 1.16 0 01.3.43 2.77 2.77 0 01.23 1v9.52h4v-9.37a9.46 9.46 0 00-.18-2.45z"/></svg>