<?xml version="1.0" encoding="UTF-8"?>
<svg xmlns="http://www.w3.org/2000/svg" version="1.1" viewBox="0 0 950 360">
  <defs>
    <style>
      .cls-1 {
        fill: #be0064;
      }
    </style>
  </defs>
  <!-- Generator: Adobe Illustrator 28.6.0, SVG Export Plug-In . SVG Version: 1.2.0 Build 709)  -->
  <g>
    <g id="Capa_1">
      <g>
        <path class="cls-1" d="M86.8,159.5l33-63.1c2-3.9,7.6-3.9,9.6,0l27.1,51.9c.5.9,1.4,1.5,2.4,1.5h78.3c1.8,0,3.1-1.7,2.6-3.4-14.5-49.9-60.6-86.4-115.3-86.4S4.5,113.7,4.5,180s.3,9.5.9,14.2c.2,1.4,1.3,2.4,2.7,2.4h151.9c2,0,3.3,2.2,2.4,4l-33,63c-2,3.9-7.6,3.9-9.6,0l-27.1-51.9c-.5-.9-1.4-1.5-2.4-1.5H11.9c-1.8,0-3.1,1.7-2.6,3.5,14.5,49.9,60.6,86.4,115.3,86.4s120.1-53.8,120.1-120.1-.3-9.5-.9-14.1c-.2-1.4-1.3-2.4-2.7-2.4H89.2c-2,0-3.3-2.2-2.4-4h0Z"/>
        <g>
          <g>
            <path class="cls-1" d="M315.9,299.8c-7.7,0-14.5-.7-20.3-2.2-5.8-1.5-11.3-3.3-16.3-5.5v-23.9h2.3c5,4.3,10.6,7.6,16.7,9.9,6.1,2.3,12,3.4,17.7,3.4s3.3-.2,5.7-.5,4.3-.8,5.7-1.5c1.8-.8,3.2-1.8,4.5-3.2s1.8-3.2,1.8-5.4-1-4.6-3-6.1-4.4-2.7-7.1-3.4c-3.4-.9-7.1-1.8-11-2.6s-7.5-1.8-10.9-3c-7.8-2.7-13.4-6.4-16.8-11.1s-5.1-10.5-5.1-17.4,4-17,12-22.9c8-5.8,17.9-8.8,29.9-8.8s11.9.6,17.9,1.8c5.9,1.2,11.2,2.9,15.9,4.9v23h-2.2c-3.7-3.2-8.3-5.9-13.7-8.1-5.4-2.2-10.9-3.3-16.6-3.3s-4.2.2-5.9.5c-1.8.3-3.6.9-5.5,1.8-1.6.7-2.9,1.8-4.1,3.2-1.1,1.4-1.7,3-1.7,4.8,0,2.6.9,4.6,2.7,6.1s5.3,2.9,10.6,4.1c3.4.8,6.6,1.5,9.8,2.2,3.1.7,6.5,1.7,10,3,7,2.5,12.2,5.9,15.6,10.2,3.4,4.3,5.1,9.9,5.1,16.9,0,10-3.9,18-11.8,24.1-7.9,6.1-18.5,9.1-31.9,9.1h0Z"/>
            <path class="cls-1" d="M372.4,298v-100.6h68.1v19.2h-42.9v17.6h39.5v19.2h-39.5v25.4h42.9v19.2h-68.1Z"/>
            <path class="cls-1" d="M541.7,292.2c-4.4,1.8-10.2,3.6-17.2,5.3-7.1,1.7-14,2.6-20.9,2.6-15.8,0-28.4-4.6-37.8-13.7-9.4-9.1-14.1-22.1-14.1-38.8s4.7-28.4,14.1-37.9c9.4-9.5,22.2-14.3,38.6-14.3s15.3.8,20.5,2.4c5.3,1.6,10.7,3.8,16.4,6.5v23.6h-2.3c-1.2-1-3-2.3-5.2-4s-4.5-3.2-6.7-4.4c-2.5-1.4-5.4-2.7-8.8-3.7s-6.8-1.5-10.5-1.5-8.3.7-11.8,2c-3.6,1.3-6.7,3.4-9.5,6.2-2.7,2.7-4.8,6.1-6.3,10.3s-2.3,9-2.3,14.5c0,11.8,3,20.4,8.9,26,5.9,5.6,14,8.4,24.2,8.4s2,0,3.2,0c1.2,0,2.3-.1,3.2-.2v-19.7h-19.5v-18.9h44v49.5h0Z"/>
            <path class="cls-1" d="M601.4,300.1c-13.5,0-23.9-3.3-31.2-9.8-7.3-6.5-10.9-16.1-10.9-28.7v-64.3h25.3v62.8c0,7,1.3,12.2,4,15.6,2.6,3.4,6.9,5.1,12.9,5.1s10.1-1.6,12.8-4.9c2.7-3.3,4.1-8.6,4.1-15.8v-62.8h25.3v64.2c0,12.4-3.5,21.9-10.6,28.6-7.1,6.6-17.6,10-31.5,10h0Z"/>
            <path class="cls-1" d="M756.1,298h-30.8l-28-36.9h-9.1v36.9h-25.1v-100.6h40.5c5.6,0,10.5.4,14.6,1,4.1.7,8,2.1,11.5,4.4,3.6,2.3,6.5,5.2,8.6,8.8,2.1,3.5,3.2,8,3.2,13.5s-1.7,14-5.2,18.8c-3.5,4.8-8.1,8.6-13.9,11.5l33.9,42.8h0ZM715.4,228.1c0-2.5-.5-4.7-1.5-6.5s-2.6-3.2-4.8-4.2c-1.6-.7-3.3-1.1-5.3-1.3s-4.4-.3-7.2-.3h-8.4v27.1h7.2c3.5,0,6.5-.2,9-.6,2.5-.4,4.5-1.3,6.3-2.7,1.6-1.3,2.8-2.8,3.6-4.5.8-1.8,1.2-4.1,1.2-6.9h0Z"/>
            <path class="cls-1" d="M855.1,247.7c0,16.3-4.4,29.1-13,38.4-8.7,9.3-20.6,14-35.8,14s-27.1-4.7-35.8-14.2c-8.6-9.4-13-22.2-13-38.2s4.3-29,13-38.4c8.6-9.4,20.6-14.1,35.8-14.1s27.1,4.7,35.8,14c8.7,9.4,13,22.2,13,38.4h0ZM829.1,247.6c0-6-.6-11.1-1.9-15.3-1.2-4.2-2.9-7.7-5-10.4-2.2-2.7-4.6-4.7-7.3-5.9-2.7-1.2-5.6-1.8-8.5-1.8s-5.9.6-8.4,1.7c-2.5,1.1-5,3.1-7.3,5.9-2.1,2.6-3.8,6.1-5,10.4s-1.9,9.5-1.9,15.5.6,11.3,1.8,15.4c1.2,4.1,2.9,7.5,5,10.2,2.2,2.8,4.6,4.8,7.4,6,2.7,1.2,5.6,1.8,8.5,1.8s5.9-.6,8.6-1.9c2.8-1.3,5.2-3.3,7.2-6,2.2-2.9,3.8-6.3,5-10.2,1.2-3.9,1.8-9,1.8-15.3h0Z"/>
            <path class="cls-1" d="M901.2,299.8c-7.7,0-14.5-.7-20.3-2.2-5.8-1.5-11.3-3.3-16.3-5.5v-23.9h2.3c5,4.3,10.6,7.6,16.7,9.9,6.1,2.3,12,3.4,17.7,3.4s3.3-.2,5.7-.5,4.3-.8,5.7-1.5c1.8-.8,3.2-1.8,4.5-3.2,1.2-1.4,1.8-3.2,1.8-5.4s-1-4.6-3-6.1c-2-1.6-4.4-2.7-7.1-3.4-3.4-.9-7.1-1.8-11-2.6s-7.5-1.8-10.9-3c-7.8-2.7-13.4-6.4-16.8-11.1s-5.1-10.5-5.1-17.4,4-17,12-22.9c8-5.8,17.9-8.8,29.9-8.8s11.9.6,17.9,1.8c5.9,1.2,11.2,2.9,15.9,4.9v23h-2.2c-3.7-3.2-8.3-5.9-13.7-8.1-5.4-2.2-10.9-3.3-16.6-3.3s-4.2.2-5.9.5-3.6.9-5.5,1.8c-1.6.7-2.9,1.8-4.1,3.2-1.1,1.4-1.7,3-1.7,4.8,0,2.6.9,4.6,2.7,6.1s5.3,2.9,10.6,4.1c3.4.8,6.6,1.5,9.8,2.2,3.1.7,6.5,1.7,10,3,7,2.5,12.2,5.9,15.6,10.2,3.4,4.3,5.1,9.9,5.1,16.9,0,10-3.9,18-11.8,24.1-7.9,6.1-18.5,9.1-31.9,9.1h0Z"/>
          </g>
          <g>
            <path class="cls-1" d="M315.9,164.5c-7.7,0-14.5-.7-20.3-2.2s-11.3-3.3-16.3-5.5v-23.9h2.3c5,4.3,10.6,7.6,16.7,9.9,6.1,2.3,12,3.4,17.7,3.4s3.3-.2,5.7-.5c2.4-.3,4.3-.8,5.7-1.5,1.8-.8,3.2-1.8,4.5-3.2s1.8-3.2,1.8-5.4-1-4.6-3-6.1-4.4-2.7-7.1-3.4c-3.4-.9-7.1-1.8-11-2.6s-7.5-1.8-10.9-3c-7.8-2.7-13.4-6.4-16.8-11.1-3.4-4.6-5.1-10.5-5.1-17.4s4-17,12-22.9c8-5.8,17.9-8.8,29.9-8.8s11.9.6,17.9,1.8c5.9,1.2,11.2,2.9,15.9,4.9v23h-2.2c-3.7-3.2-8.3-5.9-13.7-8.1-5.4-2.2-10.9-3.3-16.6-3.3s-4.2.2-5.9.5c-1.8.3-3.6.9-5.5,1.8-1.6.7-2.9,1.8-4.1,3.2-1.1,1.4-1.7,3-1.7,4.8,0,2.6.9,4.6,2.7,6.1s5.3,2.9,10.6,4.1c3.4.8,6.6,1.5,9.8,2.2,3.1.7,6.5,1.7,10,3,7,2.5,12.2,5.9,15.6,10.2s5.1,9.9,5.1,16.9c0,10-3.9,18-11.8,24.1-7.9,6.1-18.5,9.1-31.9,9.1h0Z"/>
            <path class="cls-1" d="M377.6,162.7l34-100.6h27.6l34,100.6h-26l-6.3-20.5h-31.6l-6.3,20.5h-25.3,0ZM435.3,123.9l-10.3-33.2-10.3,33.2h20.5,0Z"/>
            <path class="cls-1" d="M585.3,162.7h-24.3l-38.8-70.1v70.1h-23.1V62h31l32.1,57.7v-57.7h23.1v100.6h0Z"/>
            <path class="cls-1" d="M665,164.6c-15.1,0-27.1-4.6-36-13.7-8.9-9.1-13.3-22-13.3-38.5s4.4-28.7,13.4-38.1c8.9-9.5,20.9-14.2,36-14.2s7.6.2,10.8.7c3.2.4,6.3,1.1,9.2,1.9,2.3.7,4.8,1.6,7.5,2.8,2.7,1.2,4.9,2.2,6.6,3v24h-2.6c-1.2-1.1-2.7-2.4-4.6-3.9-1.8-1.5-3.9-3-6.3-4.4s-4.9-2.7-7.7-3.7-5.8-1.5-8.8-1.5-7,.6-10,1.7c-3,1.2-5.9,3.1-8.7,6-2.5,2.6-4.6,6-6.2,10.4s-2.4,9.5-2.4,15.5.8,11.5,2.5,15.8c1.7,4.3,3.8,7.7,6.6,10.3,2.6,2.5,5.5,4.4,8.8,5.5,3.2,1.1,6.4,1.7,9.6,1.7s6.5-.6,9.5-1.7c3-1.1,5.6-2.3,7.6-3.7,2.3-1.4,4.2-2.8,5.9-4.3,1.7-1.4,3.2-2.7,4.5-3.8h2.3v23.7c-1.8.9-4,1.8-6.4,2.9s-4.9,2-7.5,2.8c-3.2,1-6.1,1.7-8.9,2.2s-6.5.7-11.4.7h0Z"/>
            <path class="cls-1" d="M821.6,112.4c0,16.3-4.4,29.1-13,38.4-8.7,9.3-20.6,14-35.8,14s-27.1-4.7-35.8-14.2c-8.6-9.4-13-22.2-13-38.2s4.3-29,13-38.4c8.6-9.4,20.6-14.1,35.8-14.1s27.1,4.7,35.8,14c8.7,9.4,13,22.2,13,38.4ZM795.5,112.3c0-6-.6-11.1-1.9-15.3s-2.9-7.7-5-10.4c-2.2-2.7-4.6-4.7-7.3-5.9-2.7-1.2-5.6-1.8-8.5-1.8s-5.9.6-8.4,1.7c-2.5,1.1-5,3.1-7.3,5.9-2.1,2.6-3.8,6.1-5,10.4-1.3,4.3-1.9,9.5-1.9,15.5s.6,11.3,1.8,15.4c1.2,4.1,2.9,7.5,5,10.2,2.2,2.8,4.6,4.8,7.4,6,2.7,1.2,5.6,1.8,8.5,1.8s5.9-.6,8.6-1.9c2.8-1.3,5.2-3.3,7.2-6,2.2-2.9,3.8-6.3,5-10.2,1.2-3.9,1.8-9,1.8-15.3Z"/>
            <path class="cls-1" d="M945.5,162.7h-30.8l-28-36.9h-9.1v36.9h-25.1V62h40.5c5.6,0,10.5.4,14.6,1,4.1.7,8,2.1,11.5,4.4,3.6,2.3,6.5,5.2,8.6,8.8,2.1,3.5,3.2,8,3.2,13.5s-1.7,14-5.2,18.8c-3.5,4.8-8.1,8.6-13.9,11.5l33.9,42.8h0ZM904.8,92.8c0-2.5-.5-4.7-1.5-6.5s-2.6-3.2-4.8-4.2c-1.6-.7-3.3-1.1-5.3-1.3s-4.4-.3-7.2-.3h-8.4v27.1h7.2c3.5,0,6.5-.2,9-.6s4.5-1.3,6.3-2.7c1.6-1.3,2.8-2.8,3.6-4.5.8-1.8,1.2-4.1,1.2-6.9h0Z"/>
          </g>
        </g>
      </g>
    </g>
  </g>
</svg>